<svg
 xmlns="http://www.w3.org/2000/svg"
 xmlns:xlink="http://www.w3.org/1999/xlink"
 viewBox="0 0 32 9.7"
>
 <defs>
  <style>
   .cls-1 {
    fill: #3c58bf;
   }

   .cls-2 {
    fill: #293688;
   }

   .cls-3 {
    fill: #051244;
   }

   .cls-4 {
    fill: #f7981d;
   }

   .cls-5 {
    fill: #ed7c00;
   }

   .cls-6 {
    clip-path: url(#clippath);
   }

   .cls-7 {
    fill: none;
   }

   .cls-8 {
    fill: #ffbc00;
   }
  </style>
  <clipPath id="clippath">
   <rect class="cls-7" width="32" height="9.7" />
  </clipPath>
 </defs>
 <g class="cls-6">
  <g>
   <path class="cls-1" d="m11.73,9.45L13.36.3h2.54l-1.57,9.14h-2.6Z" />
   <path class="cls-2" d="m11.73,9.45L13.82.3h2.08l-1.57,9.14h-2.6Z" />
   <path
    class="cls-1"
    d="m23.52.41c-.51-.2-1.32-.41-2.34-.41-2.54,0-4.37,1.27-4.37,3.1,0,1.37,1.27,2.08,2.29,2.54,1.02.46,1.32.76,1.32,1.17,0,.61-.81.91-1.52.91-1.02,0-1.57-.15-2.44-.51l-.36-.15-.36,2.08c.61.25,1.73.51,2.9.51,2.69,0,4.47-1.27,4.47-3.2,0-1.07-.66-1.88-2.18-2.54-.91-.46-1.47-.71-1.47-1.17,0-.41.46-.81,1.47-.81.86,0,1.47.15,1.93.36l.25.1.41-1.98Z"
   />
   <path
    class="cls-2"
    d="m23.52.41c-.51-.2-1.32-.41-2.34-.41-2.54,0-3.91,1.27-3.91,3.1,0,1.37.81,2.08,1.83,2.54,1.02.46,1.32.76,1.32,1.17,0,.61-.81.91-1.52.91-1.02,0-1.57-.15-2.44-.51l-.36-.15-.36,2.08c.61.25,1.73.51,2.9.51,2.69,0,4.47-1.27,4.47-3.2,0-1.07-.66-1.88-2.18-2.54-.91-.46-1.47-.71-1.47-1.17,0-.41.46-.81,1.47-.81.86,0,1.47.15,1.93.36l.25.1.41-1.98Z"
   />
   <path
    class="cls-1"
    d="m27.89.3c-.61,0-1.07.05-1.32.66l-3.81,8.48h2.74l.51-1.52h3.25l.3,1.52h2.44L29.87.3h-1.98Zm-1.17,6.1c.15-.46,1.02-2.69,1.02-2.69,0,0,.2-.56.36-.91l.15.86s.51,2.29.61,2.79h-2.13v-.05h0Z"
   />
   <path
    class="cls-2"
    d="m28.5.3c-.61,0-1.07.05-1.32.66l-4.42,8.48h2.74l.51-1.52h3.25l.3,1.52h2.44L29.87.3h-1.37Zm-1.78,6.1c.2-.51,1.02-2.69,1.02-2.69,0,0,.2-.56.36-.91l.15.86s.51,2.29.61,2.79h-2.13v-.05h0Z"
   />
   <path
    class="cls-1"
    d="m7.06,6.7l-.25-1.32c-.46-1.52-1.93-3.2-3.56-4.01l2.29,8.13h2.74L12.39.36h-2.74l-2.59,6.35h0Z"
   />
   <path
    class="cls-2"
    d="m7.06,6.7l-.25-1.32c-.46-1.52-1.93-3.2-3.56-4.01l2.29,8.13h2.74L12.39.36h-2.23l-3.1,6.35h0Z"
   />
   <path
    class="cls-8"
    d="m0,.3l.46.1c3.25.76,5.49,2.69,6.35,4.98l-.91-4.32c-.15-.61-.61-.76-1.17-.76H0Z"
   />
   <path
    class="cls-4"
    d="m0,.3c3.25.76,5.94,2.74,6.81,5.03l-.86-3.61c-.15-.61-.66-.97-1.22-.97L0,.3Z"
   />
   <path
    class="cls-5"
    d="m0,.3c3.25.76,5.94,2.74,6.81,5.03l-.61-1.98c-.15-.61-.36-1.22-1.07-1.47L0,.3Z"
   />
   <path
    class="cls-3"
    d="m9.6,6.4l-1.73-1.73-.81,1.93-.2-1.27c-.46-1.52-1.93-3.2-3.56-4.01l2.29,8.13h2.74l1.27-3.05Z"
   />
   <path class="cls-3" d="m14.32,9.45l-2.18-2.24-.41,2.24h2.59Z" />
   <path
    class="cls-3"
    d="m20.17,6.3c.2.2.3.36.25.56,0,.61-.81.91-1.52.91-1.02,0-1.57-.15-2.44-.51l-.36-.15-.36,2.08c.61.25,1.73.51,2.9.51,1.63,0,2.95-.46,3.71-1.27l-2.18-2.13Z"
   />
   <path
    class="cls-3"
    d="m23.11,9.45h2.39l.51-1.52h3.25l.3,1.52h2.44l-.86-3.71-3.05-2.95.15.81s.51,2.29.61,2.79h-2.13c.2-.51,1.02-2.69,1.02-2.69,0,0,.2-.56.36-.91"
   />
  </g>
 </g>
</svg>
