<svg
 xmlns="http://www.w3.org/2000/svg"
 xmlns:xlink="http://www.w3.org/1999/xlink"
 viewBox="0 0 40 39.95"
>
 <defs>
  <style>
   .cls-1 {
    clip-path: url(#clippath);
   }

   .cls-2 {
    fill: none;
   }

   .cls-3 {
    fill: #b2215a;
   }

   .cls-4 {
    fill: #e74d89;
   }
  </style>
  <clipPath id="clippath">
   <rect class="cls-2" width="40" height="39.95" />
  </clipPath>
 </defs>
 <g class="cls-1">
  <g>
   <path
    class="cls-3"
    d="m20,1.33c10.31,0,18.66,8.34,18.66,18.64s-8.34,18.66-18.66,18.66S1.34,30.28,1.34,19.98,9.69,1.33,20,1.33Z"
   />
   <path
    class="cls-4"
    d="m20,39.95C8.97,39.95,0,31,0,19.98S8.97,0,20,0s20,8.95,20,19.97-8.97,19.98-20,19.98Zm16.86-17.25c-.58-.19-5.28-1.58-10.64-.73,2.23,6.12,3.14,11.12,3.31,12.16,3.84-2.58,6.58-6.67,7.33-11.42h0Zm-10.19,12.99c-.25-1.5-1.25-6.72-3.64-12.94-.03.02-.08.03-.11.03-9.64,3.36-13.09,10.03-13.41,10.66,2.89,2.25,6.53,3.59,10.48,3.59,2.36.02,4.62-.47,6.67-1.34h.01Zm-19.36-4.3c.39-.66,5.08-8.41,13.89-11.27.22-.08.45-.14.67-.2-.42-.97-.89-1.94-1.39-2.89-8.53,2.55-16.81,2.44-17.56,2.42,0,.17-.02.34-.02.52.02,4.39,1.67,8.39,4.41,11.42Zm-4.03-14.91c.77.02,7.8.05,15.8-2.08-2.83-5.03-5.89-9.25-6.33-9.86-4.8,2.25-8.36,6.66-9.47,11.94ZM16,3.41c.47.62,3.58,4.84,6.38,9.98,6.08-2.28,8.64-5.72,8.95-6.16-3.02-2.67-6.98-4.3-11.33-4.3-1.38,0-2.72.17-4,.47h0Zm17.22,5.81c-.36.48-3.22,4.16-9.53,6.73.39.81.78,1.64,1.14,2.47.12.3.25.59.38.88,5.69-.72,11.33.44,11.89.55-.05-4.02-1.48-7.72-3.88-10.62h0Z"
   />
  </g>
 </g>
</svg>
