<svg
 xmlns:xlink="http://www.w3.org/1999/xlink"
 xmlns="http://www.w3.org/2000/svg"
 viewBox="0 0 40 40"
>
 <defs>
  <style>
   .cls-1 {
    fill: #fff;
   }

   .cls-2 {
    fill: #d81f26;
   }
  </style>
 </defs>
 <path
  class="cls-1"
  d="m20,0h0c11.05,0,20,8.95,20,20h0c0,11.05-8.95,20-20,20h0C8.95,40,0,31.05,0,20h0C0,8.95,8.95,0,20,0Z"
 />
 <path
  class="cls-2"
  d="m8.85,23.64c-.46.08-.93.11-1.42.17l-1.49-4.37v4.55c-.46.05-.89.11-1.32.18v-8.34h1.23l1.69,4.73v-4.73h1.31v7.81Zm2.56-4.75c.5,0,1.27-.02,1.74-.02v1.3c-.58,0-1.25,0-1.74.02v1.94c.76-.05,1.53-.11,2.3-.14v1.25l-3.6.29v-7.7h3.6v1.3h-2.3v1.75h0Zm7.13-1.74h-1.35v6c-.44,0-.88,0-1.3.02v-6.03h-1.35v-1.3h4v1.3h0Zm2.11,1.67h1.78v1.3h-1.78v2.96h-1.28v-7.23h3.63v1.3h-2.35v1.66h0Zm4.47,3.13c.74.02,1.49.07,2.21.11v1.29c-1.16-.07-2.32-.15-3.51-.17v-7.32h1.3v6.09Zm3.31,1.49c.41.02.85.05,1.28.1v-7.68h-1.28v7.58Zm6.96-7.58l-1.65,3.97,1.65,4.38c-.49-.07-.97-.15-1.46-.24l-.93-2.41-.95,2.22c-.47-.08-.93-.11-1.4-.17l1.67-3.82-1.51-3.92h1.4l.85,2.19.91-2.19h1.42Z"
 />
</svg>
