<svg xmlns="http://www.w3.org/2000/svg" viewBox="0 0 22 18.01">
 <path
  d="m7.43,0c.42,0,.76.33.76.75s-.34.75-.76.75h-1.63c-1.35,0-2.45,1.08-2.45,2.41v1.86c0,.41-.34.75-.76.75s-.76-.34-.76-.75v-1.86C1.83,1.75,3.61,0,5.8,0h1.63Zm7.17,0h1.59c2.2,0,3.99,1.75,3.99,3.91v1.86c0,.41-.34.75-.76.75s-.76-.34-.76-.75v-1.86c0-1.33-1.1-2.41-2.46-2.41h-1.59c-.42,0-.76-.33-.76-.75s.33-.75.75-.75Zm-.84,3.74h-5.52c-1.26,0-2.28,1.03-2.27,2.27v1.25c0,.15.12.26.27.27h9.52c.15,0,.27-.12.27-.27v-1.25c0-.6-.23-1.17-.66-1.6-.42-.42-1-.66-1.61-.66h0ZM.76,9.04h20.48c.42,0,.76.33.76.75s-.34.75-.76.75h-1.06v3.56c0,2.16-1.79,3.91-3.98,3.91h-1.59c-.42,0-.76-.33-.76-.75s.34-.75.76-.75h1.59c1.36,0,2.46-1.08,2.46-2.41v-3.56h-2.62v.99c0,1.24-1,2.25-2.27,2.27h-5.52c-1.26-.01-2.28-1.03-2.27-2.27v-.99h-2.62v3.56c0,1.33,1.1,2.41,2.45,2.41h1.63c.42,0,.76.34.76.75s-.34.75-.76.75h-1.63c-2.19,0-3.97-1.75-3.97-3.9v-3.56H.76c-.42,0-.76-.33-.76-.75s.34-.75.76-.75h0Z"
 />
</svg>
