<svg
 xmlns="http://www.w3.org/2000/svg"
 viewBox="0 0 215.02 64.5"
 preserveAspectRatio="none"
>
 <defs>
  <style>
   .cls-1 {
    fill: url(#linear-gradient-2);
   }

   .cls-2 {
    opacity: 0.2;
   }

   .cls-3 {
    fill: url(#linear-gradient);
   }
  </style>
  <linearGradient
   id="linear-gradient"
   x1="0"
   y1="34"
   x2="215.02"
   y2="34"
   gradientTransform="translate(0 66) scale(1 -1)"
   gradientUnits="userSpaceOnUse"
  >
   <stop offset="0" stop-color="#00f5a0" />
   <stop offset="1" stop-color="#00d9f5" />
  </linearGradient>
  <linearGradient
   id="linear-gradient-2"
   x1="76.57"
   y1="19.5"
   x2="184.57"
   y2="19.5"
   gradientTransform="translate(0 66) scale(1 -1)"
   gradientUnits="userSpaceOnUse"
  >
   <stop offset="0" stop-color="#00f5a0" />
   <stop offset="1" stop-color="#00d9f5" />
  </linearGradient>
 </defs>
 <g class="cls-2">
  <path
   class="cls-3"
   d="m129.66,64c-5.47,0-8.28-5.64-11.02-11.11-2.95-5.9-5.73-11.47-11.56-9.59-2.33.75-3.53,2.25-4.79,3.83-1.35,1.68-2.74,3.42-5.52,4.16-6.14,1.64-8.62-3.08-11.24-8.06-2.27-4.33-4.62-8.81-9.58-9.9-2.58-.56-4.64-.31-6.83-.04-2.09.26-4.25.53-6.88.04-6.93-1.28-10.04-6.04-13.06-10.65-2.99-4.57-5.82-8.89-12.12-10.32-2.63-.6-4.92-.32-7.14-.04-2.59.32-5.27.65-8.36-.47-3.12-1.13-4.59-3.32-6.01-5.45-1.46-2.18-2.84-4.24-5.95-5.02-2.28-.57-4-.4-5.98-.21-1.11.11-2.25.22-3.61.22V.41c1.31,0,2.43-.11,3.52-.22,1.99-.2,3.88-.38,6.33.23,3.48.87,5.03,3.19,6.53,5.43,1.4,2.08,2.72,4.05,5.52,5.07,2.87,1.04,5.31.74,7.9.42,2.3-.28,4.68-.57,7.48.06,6.7,1.52,9.77,6.21,12.74,10.75,3.03,4.63,5.9,9.01,12.4,10.21,2.48.46,4.56.2,6.58-.05,2.17-.27,4.42-.55,7.16.05,5.42,1.18,7.99,6.08,10.26,10.41,2.53,4.83,4.72,8.99,10.09,7.56,2.46-.66,3.69-2.19,5-3.82,1.3-1.63,2.65-3.31,5.27-4.16,6.64-2.14,9.76,4.08,12.77,10.1,3,6.01,5.83,11.69,11.87,10.35,3.63-.8,5.26-3.21,6.99-5.75,1.72-2.52,3.49-5.13,7.27-6.22,3.08-.88,5.51-.57,8.08-.24,1.93.25,3.93.5,6.29.23,12.32-1.42,17.69-10.82,22.88-19.92,5.36-9.4,10.91-19.11,24.03-20.01,3.11-.21,8.01,0,8.06,0l-.04,1s-4.89-.21-7.95,0c-12.59.86-17.76,9.92-23.23,19.51-5.31,9.31-10.81,18.94-23.63,20.41-2.49.29-4.55.02-6.54-.23-2.47-.31-4.8-.61-7.68.21-3.43.99-5.03,3.33-6.72,5.82-1.76,2.59-3.59,5.28-7.6,6.17-.69.15-1.34.22-1.96.22Z"
  />
 </g>
 <path
  class="cls-1"
  d="m130.16,64.5c-5.8,0-8.8-6.07-11.48-11.49-3.44-6.96-5.9-11.08-10.95-9.43-2.18.71-3.34,2.16-4.56,3.7-1.33,1.68-2.84,3.58-5.78,4.37-6.54,1.75-9.21-3.4-11.81-8.39-2.22-4.27-4.51-8.69-9.24-9.73-.54-.12-.88-.65-.76-1.19.12-.54.65-.88,1.19-.76,5.64,1.24,8.27,6.3,10.59,10.76,2.81,5.41,4.77,8.66,9.51,7.38,2.3-.62,3.43-2.04,4.73-3.68,1.29-1.62,2.75-3.46,5.5-4.36,7.05-2.3,10.41,4.47,13.36,10.45,2.91,5.89,5.66,11.44,11.3,10.18,3.43-.77,5.01-3.12,6.68-5.6,1.68-2.5,3.59-5.33,7.54-6.48,3.17-.92,5.77-.58,8.28-.26,1.9.24,3.86.49,6.17.23,12.06-1.4,17.12-10.37,22.49-19.86l.76-1.34c.27-.48.88-.65,1.36-.38.48.27.65.88.38,1.36l-.76,1.34c-5.37,9.51-10.92,19.34-24,20.86-2.55.3-4.64.03-6.66-.23-2.41-.31-4.69-.6-7.47.2-3.26.94-4.8,3.24-6.44,5.67-1.82,2.7-3.7,5.49-7.91,6.43-.72.16-1.41.24-2.05.24Z"
 />
</svg>
