<svg xmlns="http://www.w3.org/2000/svg" viewBox="0 0 264.79 72.14">
 <defs>
  <style>
   .cls-1 {
    fill: #fff;
   }

   .cls-2 {
    fill: #5ce1e6;
   }

   .cls-3 {
    clip-path: url(#clippath);
   }

   .cls-4 {
    fill: none;
   }
  </style>
  <clipPath id="clippath">
   <rect class="cls-4" width="264.79" height="72.14" />
  </clipPath>
 </defs>
 <g class="cls-3">
  <g>
   <path
    class="cls-1"
    d="m107.49,29.26v28.65h-5.76v-12.46h-12.25v12.46h-5.72v-28.65h5.72v11.6h12.25v-11.6h5.76Zm15.58,5.88c2.19,0,4.15.46,5.88,1.38,1.76.92,3.14,2.26,4.14,4.02,1,1.73,1.5,3.77,1.5,6.13s-.5,4.4-1.5,6.13-2.38,3.07-4.14,4.02c-1.73.92-3.69,1.38-5.88,1.38s-4.17-.46-5.92-1.38c-1.73-.95-3.1-2.29-4.1-4.02s-1.5-3.77-1.5-6.13.5-4.4,1.5-6.13c1-1.76,2.37-3.1,4.1-4.02,1.76-.92,3.73-1.38,5.92-1.38Zm0,4.95c-1.6,0-2.95.57-4.06,1.7-1.11,1.11-1.66,2.73-1.66,4.87s.56,3.77,1.66,4.91c1.11,1.11,2.46,1.66,4.06,1.66s2.95-.55,4.06-1.66c1.11-1.14,1.66-2.77,1.66-4.91s-.56-3.76-1.66-4.87c-1.11-1.14-2.46-1.7-4.06-1.7Zm25.96-4.95c2.19,0,4.15.46,5.88,1.38,1.76.92,3.14,2.26,4.14,4.02,1,1.73,1.5,3.77,1.5,6.13s-.5,4.4-1.5,6.13-2.38,3.07-4.14,4.02c-1.73.92-3.69,1.38-5.88,1.38s-4.17-.46-5.92-1.38c-1.73-.95-3.1-2.29-4.1-4.02s-1.5-3.77-1.5-6.13.5-4.4,1.5-6.13c1-1.76,2.37-3.1,4.1-4.02,1.76-.92,3.73-1.38,5.92-1.38Zm0,4.95c-1.6,0-2.95.57-4.06,1.7-1.11,1.11-1.66,2.73-1.66,4.87s.55,3.77,1.66,4.91c1.11,1.11,2.46,1.66,4.06,1.66s2.95-.55,4.06-1.66c1.11-1.14,1.66-2.77,1.66-4.91s-.55-3.76-1.66-4.87c-1.11-1.14-2.46-1.7-4.06-1.7Z"
   />
   <path
    class="cls-2"
    d="m180.57,43.14c1.73.35,3.11,1.18,4.14,2.48,1.06,1.27,1.58,2.77,1.58,4.5,0,2.41-.81,4.31-2.43,5.72-1.6,1.38-3.92,2.07-6.98,2.07h-12.29v-28.65h12.05c2.9,0,5.11.64,6.65,1.91,1.57,1.27,2.35,3.06,2.35,5.36,0,1.79-.47,3.25-1.42,4.38-.92,1.14-2.14,1.88-3.65,2.23Zm-10.27-1.87h5.15c1.43,0,2.52-.31,3.25-.93.76-.65,1.14-1.57,1.14-2.76s-.37-2.11-1.1-2.76c-.73-.65-1.85-.97-3.37-.97h-5.07v7.43h0Zm5.44,11.96c1.51,0,2.68-.32,3.49-.97.81-.68,1.22-1.65,1.22-2.92s-.42-2.25-1.26-2.92c-.81-.7-1.97-1.06-3.49-1.06h-5.4v7.87h5.44Zm23.36-18.1c1.89,0,3.52.45,4.87,1.34s2.31,2.1,2.88,3.61v-4.67h5.68v22.48h-5.68v-4.71c-.57,1.51-1.53,2.73-2.88,3.65-1.35.89-2.98,1.34-4.87,1.34s-3.6-.46-5.11-1.38c-1.51-.92-2.71-2.25-3.57-3.98-.84-1.76-1.26-3.81-1.26-6.17s.42-4.4,1.26-6.13c.87-1.76,2.06-3.1,3.57-4.02,1.51-.92,3.22-1.38,5.11-1.38v.02Zm1.79,4.99c-1.79,0-3.22.58-4.3,1.74s-1.62,2.76-1.62,4.79.54,3.62,1.62,4.79c1.08,1.14,2.52,1.7,4.3,1.7s3.15-.58,4.26-1.74c1.14-1.19,1.7-2.77,1.7-4.75s-.57-3.58-1.7-4.75c-1.11-1.19-2.53-1.79-4.26-1.79h0Zm30.22-5.02c2.6,0,4.67.85,6.21,2.56,1.54,1.7,2.31,4.1,2.31,7.18v13.07h-5.68v-12.42c0-1.79-.46-3.16-1.38-4.14-.92-1-2.18-1.5-3.77-1.5s-2.92.53-3.9,1.58c-.97,1.06-1.46,2.57-1.46,4.54v11.93h-5.72v-22.48h5.72v4.5c.6-1.51,1.57-2.69,2.92-3.53,1.38-.87,2.96-1.3,4.75-1.3h0Zm26.7,22.81l-7.42-9.82v9.82h-5.72v-30.03h5.72v16.88l7.38-9.33h6.78l-9.45,11.2,9.7,11.28h-6.99Z"
   />
   <path
    class="cls-1"
    d="m36.07,0c-7.13,0-14.11,2.12-20.04,6.08-5.93,3.96-10.55,9.6-13.28,16.19C.02,28.86-.7,36.11.69,43.1c1.39,7,4.83,13.42,9.87,18.47,5.04,5.04,11.47,8.48,18.47,9.87s14.25.68,20.84-2.05c6.59-2.73,12.22-7.35,16.19-13.28,3.96-5.93,6.08-12.9,6.08-20.04h-18.03c0,3.57-1.06,7.05-3.04,10.02-1.98,2.97-4.8,5.28-8.09,6.64-3.3,1.36-6.92,1.72-10.42,1.03-3.5-.7-6.71-2.41-9.23-4.94-2.52-2.52-4.24-5.74-4.94-9.23-.7-3.5-.34-7.12,1.03-10.42,1.36-3.3,3.68-6.11,6.64-8.09,2.97-1.98,6.45-3.04,10.02-3.04V0h0Z"
   />
   <path
    class="cls-2"
    d="m36.07,0c-4.74,0-9.43.93-13.8,2.75-4.38,1.81-8.35,4.47-11.7,7.82-3.35,3.35-6.01,7.33-7.82,11.7-1.82,4.37-2.75,9.06-2.75,13.8h18.03c0-2.37.47-4.71,1.37-6.9.91-2.19,2.23-4.18,3.91-5.85,1.67-1.67,3.66-3,5.85-3.91s4.53-1.37,6.9-1.37V0h0Z"
   />
   <path
    class="cls-2"
    d="m36.07,47.34c6.22,0,11.27-5.05,11.27-11.27s-5.05-11.27-11.27-11.27-11.27,5.05-11.27,11.27,5.05,11.27,11.27,11.27Z"
   />
   <path
    class="cls-1"
    d="m47.34,36.07c0-1.48-.29-2.95-.86-4.31-.57-1.37-1.4-2.61-2.44-3.66-1.04-1.05-2.29-1.88-3.66-2.44-1.37-.56-2.83-.86-4.31-.86s-2.95.29-4.31.86c-1.37.57-2.61,1.4-3.66,2.44-1.05,1.05-1.88,2.29-2.44,3.66-.57,1.37-.86,2.83-.86,4.31h22.54Z"
   />
  </g>
 </g>
</svg>
