<svg
 xmlns="http://www.w3.org/2000/svg"
 xmlns:xlink="http://www.w3.org/1999/xlink"
 viewBox="0 0 24 27.32"
>
 <defs>
  <style>
   .cls-1 {
    fill: #179bd7;
   }

   .cls-2 {
    fill: #253b80;
   }

   .cls-3 {
    fill: #222d65;
   }

   .cls-4 {
    clip-path: url(#clippath);
   }

   .cls-5 {
    fill: none;
   }
  </style>
  <clipPath id="clippath">
   <rect class="cls-5" width="24" height="27.32" />
  </clipPath>
 </defs>
 <g class="cls-4">
  <g>
   <path class="cls-2" d="m8.75,15.73c-.15,0-.3.03-.44.08.14-.05.28-.08.44-.08Z" />
   <path
    class="cls-2"
    d="m12.42,15.69c4.41-.28,7.81-2.34,9-7.49-1.19,5.16-4.6,7.21-9,7.49Z"
   />
   <path
    class="cls-2"
    d="m6.34,24.22l1.17-7.43.04-.27,1.47-9.3c.04-.26.17-.5.37-.67.06-.05.14-.09.21-.12.16-.08.32-.14.5-.14h6.9c.41,0,.8,0,1.17.04.16,0,.31.04.47.05.21.02.43.04.63.07.47.07.93.18,1.39.33.01,0,.02.01.03.01.33.11.64.24.92.39.35-2.2,0-3.7-1.19-5.06C19.11.63,16.74-.01,13.71-.01H4.92C4.3-.01,3.77.44,3.68,1.05L0,24.3c-.02.11,0,.22.02.32.03.11.08.2.15.29.07.08.16.15.26.2.1.05.21.07.32.07h5.43l.15-.96h0Z"
   />
   <path
    class="cls-2"
    d="m7.89,16.08s.04-.04.06-.06c0,0-.02,0-.02.01-.02,0-.02.03-.04.05Z"
   />
   <path class="cls-2" d="m7.66,16.37c-.07.13-.12.27-.15.42.02-.15.07-.29.15-.42Z" />
   <path
    class="cls-1"
    d="m22.88,7.16c-.36-.4-.78-.72-1.25-.97-.03.17-.06.34-.09.52-.03.17-.08.33-.11.49-1.19,5.16-4.6,7.21-9,7.49-.36.02-.72.04-1.09.04h-2.58c-.15,0-.3.03-.44.08-.13.05-.25.12-.35.21l-.06.06c-.09.09-.18.18-.24.29-.07.13-.12.27-.15.42l-1.17,7.43-.15.96-.37,2.38c-.01.09,0,.19.02.28.03.09.07.18.13.25.06.07.14.13.23.17.09.04.18.06.28.06h4.58c.54,0,1-.39,1.09-.93l.04-.23.86-5.47.06-.3c.08-.54.55-.93,1.09-.93h.68c4.44,0,7.91-1.8,8.93-7.02.42-2.18.2-4-.92-5.28h-.02Z"
   />
   <path
    class="cls-3"
    d="m20.67,5.79c-.45-.15-.92-.26-1.39-.33-.2-.03-.42-.05-.63-.07-.16-.02-.31-.04-.47-.05-.38-.03-.77-.04-1.17-.04h-6.9c-.18,0-.35.06-.5.14-.07.04-.15.07-.21.12-.2.17-.33.41-.37.67l-1.47,9.3-.04.27c.02-.15.07-.29.15-.42.06-.11.15-.2.24-.29.02-.01.02-.04.04-.05,0,0,.02,0,.02-.01.11-.09.23-.16.35-.21.14-.05.29-.08.44-.08h2.58c.37,0,.73-.01,1.09-.04,4.41-.28,7.81-2.34,9-7.49.04-.16.08-.32.11-.49.03-.18.06-.35.09-.52-.3-.15-.6-.28-.92-.39,0,0-.02-.01-.03-.01h-.01Z"
   />
  </g>
 </g>
</svg>
