<svg
 xmlns="http://www.w3.org/2000/svg"
 xmlns:xlink="http://www.w3.org/1999/xlink"
 viewBox="0 0 36.92 10.53"
>
 <defs>
  <style>
   .cls-1 {
    fill: #fff;
   }

   .cls-2 {
    fill: #5e8e3e;
   }

   .cls-3 {
    clip-path: url(#clippath);
   }

   .cls-4 {
    fill: #95bf47;
   }

   .cls-5 {
    fill: none;
   }
  </style>
  <clipPath id="clippath">
   <rect class="cls-5" width="36.92" height="10.53" />
  </clipPath>
 </defs>
 <g class="cls-3">
  <g>
   <path
    class="cls-4"
    d="m7.94,2s-.05-.08-.09-.08-.83-.06-.83-.06c0,0-.55-.55-.62-.6-.06-.06-.17-.04-.22-.03,0,0-.12.04-.31.1-.19-.54-.51-1.03-1.08-1.03h-.05c-.16-.21-.36-.3-.53-.3-1.33,0-1.97,1.66-2.17,2.5-.52.16-.89.27-.93.29-.29.09-.3.1-.33.37-.03.21-.78,6.04-.78,6.04l5.87,1.1,3.19-.69s-1.11-7.55-1.12-7.61Zm-2.39-.59c-.14.04-.32.1-.49.16v-.11c0-.33-.04-.59-.12-.8.3.04.49.37.62.75h0Zm-.98-.69c.08.21.13.49.13.89v.06c-.33.1-.67.21-1.03.32.2-.76.58-1.13.89-1.27h.01Zm-.39-.37c.06,0,.12.02.17.06-.43.2-.88.7-1.07,1.71-.28.09-.55.17-.81.25.22-.77.76-2.03,1.71-2.03h0Z"
   />
   <path
    class="cls-2"
    d="m7.85,1.91l-.83-.06s-.55-.55-.62-.6c-.02-.02-.05-.04-.08-.04l-.44,9.08,3.18-.69s-1.12-7.55-1.12-7.61c-.02-.05-.07-.08-.1-.09h.01Z"
   />
   <path
    class="cls-1"
    d="m4.8,3.67l-.39,1.16s-.35-.19-.77-.19c-.62,0-.65.39-.65.49,0,.53,1.39.74,1.39,1.98,0,.98-.62,1.62-1.46,1.62-1.01,0-1.52-.63-1.52-.63l.27-.89s.53.46.98.46c.3,0,.42-.23.42-.4,0-.69-1.13-.72-1.13-1.87,0-.96.69-1.89,2.08-1.89.52,0,.78.15.78.15h0Z"
   />
   <path
    d="m12.77,5.86c-.32-.17-.48-.32-.48-.52,0-.25.23-.42.59-.42.42,0,.78.17.78.17l.29-.89s-.27-.21-1.05-.21c-1.09,0-1.85.63-1.85,1.51,0,.5.36.88.83,1.15.39.21.52.37.52.6s-.19.43-.55.43c-.52,0-1.03-.27-1.03-.27l-.31.89s.46.31,1.23.31c1.12,0,1.94-.55,1.94-1.55-.01-.54-.42-.92-.9-1.2h-.01Zm4.48-1.87c-.56,0-.99.27-1.32.66h-.01l.48-2.52h-1.25l-1.22,6.39h1.25l.42-2.18c.16-.83.59-1.34.99-1.34.28,0,.39.19.39.46,0,.17-.01.39-.05.56l-.47,2.5h1.25l.49-2.58c.05-.27.09-.6.09-.82,0-.72-.37-1.14-1.03-1.14h-.01Zm3.85,0c-1.51,0-2.5,1.36-2.5,2.87,0,.97.6,1.75,1.72,1.75,1.48,0,2.47-1.32,2.47-2.87,0-.9-.51-1.75-1.69-1.75Zm-.62,3.67c-.43,0-.6-.36-.6-.82,0-.72.37-1.88,1.05-1.88.44,0,.59.39.59.75,0,.77-.38,1.95-1.04,1.95Zm5.51-3.67c-.84,0-1.32.75-1.32.75h-.01l.07-.67h-1.11c-.05.45-.16,1.15-.25,1.66l-.86,4.58h1.25l.35-1.85h.03s.26.16.73.16c1.47,0,2.43-1.51,2.43-3.03,0-.84-.39-1.6-1.3-1.6h-.01Zm-1.19,3.68c-.33,0-.52-.19-.52-.19l.21-1.16c.14-.78.55-1.3.99-1.3.39,0,.5.36.5.69,0,.81-.48,1.96-1.18,1.96Zm4.28-5.47c-.4,0-.72.32-.72.72,0,.37.24.63.59.63h.01c.39,0,.72-.27.73-.72,0-.37-.24-.63-.62-.63h.01Zm-1.75,6.33h1.25l.84-4.44h-1.25l-.84,4.44Zm5.28-4.45h-.87l.04-.21c.07-.43.33-.8.75-.8.22,0,.4.07.4.07l.24-.98s-.21-.11-.68-.11c-.44,0-.89.13-1.22.42-.43.36-.63.89-.72,1.42l-.04.21h-.59l-.19.95h.59l-.66,3.5h1.25l.66-3.5h.86l.18-.95v-.02Zm3.01,0s-.78,1.97-1.13,3.05h-.01c-.02-.35-.31-3.05-.31-3.05h-1.31l.75,4.07c.01.09,0,.14-.03.21-.14.28-.39.56-.68.75-.24.17-.5.28-.71.36l.35,1.06c.25-.05.78-.27,1.22-.68.57-.53,1.1-1.36,1.64-2.48l1.53-3.29h-1.31Z"
   />
  </g>
 </g>
</svg>
