<svg xmlns="http://www.w3.org/2000/svg" viewBox="0 0 281.32 281.31">
  <path d="m281.32,140.66c0,27.87-8.26,55.03-23.74,78.16-15.47,23.12-37.45,41.14-63.12,51.78-25.67,10.64-53.98,13.45-81.23,8s-52.31-18.81-72-38.51c-19.69-19.69-33.06-44.75-38.51-72C.91,159.02.09,149.83.08,140.66h-.08c0-.42.06-.84.06-1.27.07-8.38.89-16.73,2.45-24.96.2-1.06.45-2.11.67-3.17.67-3.13,1.45-6.23,2.34-9.31.32-1.11.62-2.21.96-3.31,1.25-3.98,2.62-7.92,4.24-11.79,1.63-3.94,3.5-7.76,5.47-11.51.44-.84.92-1.66,1.38-2.5,1.65-2.99,3.4-5.92,5.26-8.77.52-.8,1.02-1.6,1.55-2.39,4.76-7,10.13-13.56,16.07-19.59.27-.28.51-.59.79-.87.47-.48,1.01-.88,1.49-1.35,2.21-2.15,4.5-4.23,6.85-6.24,1.04-.89,2.07-1.79,3.14-2.65,2.87-2.3,5.82-4.51,8.87-6.59.68-.46,1.36-.91,2.04-1.36,3.09-2.02,6.25-3.91,9.47-5.67,1.12-.61,2.26-1.18,3.4-1.76,2.8-1.44,5.65-2.78,8.54-4.02.62-.27,1.2-.6,1.82-.86.37-.16.76-.26,1.14-.41,3.66-1.48,7.37-2.84,11.14-4.01.59-.18,1.18-.35,1.78-.53,3.54-1.04,7.12-1.93,10.74-2.69,1.4-.29,2.8-.53,4.21-.79,2.83-.51,5.66-.93,8.52-1.26,1.32-.15,2.63-.32,3.95-.44,4.1-.36,8.21-.6,12.34-.6v70.33c-3.07,0-6.12.28-9.14.68-.79.11-1.58.22-2.37.35-2.97.5-5.92,1.11-8.8,1.98-.03,0-.06.01-.09.02-3.03.92-5.99,2.1-8.88,3.43-.45.2-.89.41-1.33.62-2.9,1.41-5.73,2.97-8.44,4.78-2.85,1.9-5.52,4-8.04,6.27-.1.09-.2.18-.29.27-4.86,4.43-9.03,9.54-12.47,15.13-.28.45-.55.91-.82,1.37-1.6,2.74-3.08,5.57-4.31,8.53-1.15,2.74-2.02,5.57-2.8,8.42-.27.98-.52,1.97-.74,2.96-.55,2.41-.98,4.83-1.27,7.28-.11.93-.2,1.85-.27,2.79-.5,6.38-.22,12.83,1.05,19.17,2.73,13.71,9.41,26.2,19.25,36.04,9.85,9.85,22.42,16.53,36.04,19.25,13.63,2.64,27.78,1.32,40.62-4.04,12.84-5.36,23.82-14.33,31.56-25.93,7.74-11.52,11.87-25.14,11.87-39.03h70.33Zm-104.16-24.48c-7.89-11.75-21.29-19.48-36.5-19.48-24.28,0-43.96,19.68-43.96,43.96s19.68,43.96,43.96,43.96,43.96-19.68,43.96-43.96c0-2.94-.3-5.85-.88-8.69-.4-1.98-1.08-3.83-1.74-5.7-.28-.79-.41-1.63-.73-2.4,0-.02-.03-.04-.04-.07-.83-1.99-1.91-3.83-3.01-5.66-.38-.64-.65-1.34-1.07-1.96Z"/>
</svg>
