<svg xmlns="http://www.w3.org/2000/svg" viewBox="0 0 250 249.99">
  <path d="m250,125c0,24.77-7.34,48.91-21.09,69.45-13.75,20.55-33.28,36.56-56.09,46.02-22.81,9.45-47.97,11.95-72.19,7.11s-46.48-16.72-63.98-34.22c-17.5-17.5-29.38-39.77-34.22-63.98C.81,141.31.08,133.15.07,125h-.07c0-.38.05-.75.06-1.13.06-7.45.79-14.86,2.18-22.18.18-.94.4-1.88.6-2.82.6-2.78,1.29-5.54,2.08-8.27.28-.98.55-1.97.86-2.94,1.11-3.53,2.33-7.04,3.77-10.47,1.45-3.5,3.11-6.89,4.86-10.23.39-.75.81-1.48,1.22-2.22,1.47-2.66,3.02-5.26,4.67-7.8.46-.71.91-1.42,1.38-2.12,4.23-6.22,9-12.05,14.28-17.41.24-.25.45-.52.7-.77.42-.42.89-.79,1.32-1.2,1.97-1.91,4-3.76,6.09-5.54.93-.79,1.84-1.59,2.79-2.35,2.55-2.05,5.17-4,7.88-5.85.6-.41,1.21-.81,1.82-1.21,2.74-1.8,5.56-3.47,8.42-5.04,1-.55,2.01-1.05,3.02-1.57,2.49-1.28,5.02-2.47,7.59-3.58.55-.24,1.07-.54,1.62-.76.33-.14.68-.23,1.01-.36,3.25-1.32,6.55-2.52,9.9-3.56.52-.16,1.05-.31,1.58-.47,3.15-.93,6.33-1.71,9.54-2.39,1.24-.26,2.49-.47,3.74-.7,2.51-.45,5.03-.82,7.57-1.12,1.17-.14,2.33-.29,3.51-.39,3.64-.32,7.3-.54,10.97-.54v62.5c-2.73,0-5.44.25-8.12.6-.7.09-1.4.2-2.1.31-2.64.44-5.26.99-7.82,1.76-.03,0-.05.01-.08.02-2.7.82-5.32,1.87-7.89,3.05-.4.18-.79.37-1.18.55-2.57,1.25-5.09,2.64-7.5,4.24-2.53,1.69-4.91,3.56-7.14,5.57-.09.08-.17.16-.26.24-4.32,3.94-8.02,8.48-11.08,13.44-.25.4-.49.81-.73,1.22-1.43,2.44-2.73,4.95-3.83,7.58-1.02,2.44-1.79,4.95-2.49,7.48-.24.87-.46,1.75-.66,2.63-.49,2.14-.87,4.29-1.13,6.47-.1.82-.18,1.65-.24,2.48-.45,5.67-.2,11.4.93,17.04,2.42,12.19,8.36,23.28,17.11,32.03,8.75,8.75,19.92,14.69,32.03,17.11,12.11,2.34,24.69,1.17,36.09-3.59s21.17-12.73,28.05-23.05c6.88-10.23,10.55-22.34,10.55-34.69h62.5Zm-92.56-21.75c-7.01-10.44-18.92-17.31-32.44-17.31-21.57,0-39.06,17.49-39.06,39.06s17.49,39.06,39.06,39.06,39.06-17.49,39.06-39.06c0-2.61-.27-5.19-.78-7.72-.35-1.76-.96-3.4-1.54-5.07-.25-.7-.36-1.45-.65-2.13,0-.02-.02-.04-.03-.06-.74-1.77-1.7-3.4-2.68-5.03-.34-.57-.58-1.19-.95-1.74Z"/>
</svg>
