<svg
 xmlns="http://www.w3.org/2000/svg"
 xmlns:xlink="http://www.w3.org/1999/xlink"
 viewBox="0 0 386.16 223.24"
>
 <defs>
  <style>
   .cls-1 {
    fill: #fff;
   }

   .cls-2 {
    fill: rgba(255, 255, 255, 0.7);
   }

   .cls-3 {
    opacity: 0.9;
   }

   .cls-4,
   .cls-5,
   .cls-6,
   .cls-7 {
    fill: none;
   }

   .cls-4,
   .cls-6 {
    stroke: #fff;
   }

   .cls-8 {
    fill: url(#linear-gradient);
    stroke: url(#linear-gradient-2);
    stroke-width: 0.69px;
   }

   .cls-5 {
    opacity: 0.75;
    stroke: url(#linear-gradient-3);
   }

   .cls-5,
   .cls-7 {
    isolation: isolate;
    stroke-width: 0.5px;
   }

   .cls-6 {
    stroke-linecap: round;
    stroke-linejoin: round;
    stroke-width: 1.38px;
   }

   .cls-7 {
    opacity: 0.7;
    stroke: url(#linear-gradient-4);
   }
  </style>
  <linearGradient
   id="linear-gradient"
   x1="146.52"
   y1="441.16"
   x2="324.52"
   y2="156.91"
   gradientTransform="translate(-269.91 143.5) rotate(30) scale(1 -.87) skewX(26.57)"
   gradientUnits="userSpaceOnUse"
  >
   <stop offset="0" stop-color="#fff" stop-opacity=".4" />
   <stop offset="1" stop-color="#fff" stop-opacity=".1" />
  </linearGradient>
  <linearGradient
   id="linear-gradient-2"
   x1="152.4"
   y1="435.25"
   x2="319.9"
   y2="160.75"
   gradientTransform="translate(-269.91 143.5) rotate(30) scale(1 -.87) skewX(26.57)"
   gradientUnits="userSpaceOnUse"
  >
   <stop offset="0" stop-color="#fff" />
   <stop offset="1" stop-color="#fff" stop-opacity=".1" />
  </linearGradient>
  <linearGradient
   id="linear-gradient-3"
   x1="-750.1"
   y1="802.8"
   x2="-750.1"
   y2="783.02"
   gradientTransform="translate(185.37 -568.72) rotate(-150) scale(1 -.87) skewX(26.57)"
   gradientUnits="userSpaceOnUse"
  >
   <stop offset="0" stop-color="#fff" />
   <stop offset=".48" stop-color="#000" stop-opacity=".5" />
   <stop offset=".94" stop-color="#fff" />
  </linearGradient>
  <linearGradient
   id="linear-gradient-4"
   x1="-750.1"
   y1="802.8"
   x2="-750.1"
   y2="783.02"
   gradientTransform="translate(175.03 -574.69) rotate(-150) scale(1 -.87) skewX(26.57)"
   gradientUnits="userSpaceOnUse"
  >
   <stop offset="0" stop-color="#fff" />
   <stop offset=".48" stop-color="#000" stop-opacity=".5" />
   <stop offset=".94" stop-color="#fff" />
  </linearGradient>
 </defs>
 <path
  class="cls-8"
  d="m250.74,3.13l130.25,75.2c6.43,3.72,6.43,9.74,0,13.45l-222.27,128.33c-6.43,3.72-16.87,3.72-23.3,0L5.17,144.91c-6.43-3.72-6.43-9.74,0-13.45L227.44,3.13c6.43-3.72,16.87-3.72,23.3,0Z"
 />
 <g class="cls-3">
  <path
   class="cls-5"
   d="m139.51,207.86h0c-4.61-2.66-4.61-6.98,0-9.64h0c4.61-2.66,12.09-2.66,16.71,0h0c4.61,2.66,4.61,6.98,0,9.64h0c-4.61,2.66-12.09,2.66-16.71,0Z"
  />
  <path
   class="cls-7"
   d="m129.16,201.88h0c-4.61-2.66-4.61-6.98,0-9.64h0c4.61-2.66,12.09-2.66,16.71,0h0c4.61,2.66,4.61,6.98,0,9.64h0c-4.61,2.66-12.09,2.66-16.71,0Z"
  />
 </g>
 <path
  class="cls-1"
  d="m43.1,130.98l-6.32,2.19-1-.58,2.85-2.88-4.98,1.64-1-.58,3.8-3.65.9.52-3.24,2.88,5.23-1.73.9.52-3,3.02,4.99-1.87.9.52Zm.5,4.87l-2.14-1.23-1.48.41-.88-.5,6.85-1.8.94.54-3.13,3.95-.88-.51.71-.86Zm.4-.5l1.53-1.85-3.2.88,1.68.97Zm5.23,2.06l-.33,2.76-1-.57.34-2.51-2.34,1.35-.82-.47,5.06-2.92.82.47-2.32,1.34,4.32-.18.99.57-4.73.16Zm8.07,6.06c-.25.14-.54.24-.88.3-.33.05-.68.04-1.05-.02s-.74-.2-1.09-.41c-.34-.2-.59-.41-.75-.64-.15-.23-.19-.45-.14-.68.06-.22.22-.42.48-.6l.88.51c-.2.14-.29.3-.29.49,0,.19.15.36.43.52.25.14.51.21.77.21.27,0,.51-.06.72-.18.18-.1.28-.22.29-.34.02-.13-.01-.25-.09-.38-.08-.12-.21-.29-.38-.49-.21-.24-.37-.45-.47-.62-.1-.17-.12-.35-.06-.54.05-.19.23-.38.54-.55.27-.16.58-.26.92-.3.34-.04.69-.02,1.05.06.36.08.71.21,1.03.4.52.3.8.61.85.92.06.32-.09.61-.45.87l-.88-.51c.16-.13.23-.28.22-.44,0-.16-.13-.32-.39-.46-.23-.13-.47-.21-.73-.22-.25-.01-.49.04-.71.17-.17.1-.27.21-.29.33-.01.12.02.24.09.36.09.12.21.28.38.48.22.24.38.45.47.63.11.18.13.36.07.55-.05.2-.24.39-.56.57Zm6.03-.81l-3.01,1.73c-.45.26-.68.51-.71.75-.02.24.15.47.51.67.35.2.74.3,1.15.29.42-.01.86-.15,1.31-.41l3-1.73.82.47-3,1.73c-.69.4-1.4.6-2.12.6-.71,0-1.36-.17-1.95-.51-.58-.34-.88-.71-.88-1.12,0-.41.35-.82,1.05-1.22l3-1.73.82.47Zm3.78,8.03l-.82-.47,1.28-3.58-3.74,2.16-.82-.47,5.05-2.92.82.47-1.29,3.58,3.75-2.16.82.47-5.06,2.92Zm5.82,2.1l-2.14-1.23-1.48.41-.88-.51,6.85-1.8.94.54-3.13,3.95-.88-.5.71-.86Zm.4-.5l1.53-1.85-3.21.88,1.68.97Zm3.75,4.16l.76-1.9-.58-.34-2.02,1.17-.82-.47,5.06-2.92,1.79,1.03c.58.33.88.67.89,1,.02.34-.2.64-.67.91-.4.23-.83.35-1.31.37-.47.02-.96-.07-1.45-.27l-.73,1.95-.92-.53Zm.76-2.57l.9.52c.66.38,1.28.4,1.86.07.28-.16.41-.33.4-.51,0-.18-.17-.37-.51-.57l-.9-.52-1.76,1.01Zm7.46,1.47l-5.06,2.92-.82-.47,5.06-2.92.82.47Z"
 />
 <path
  class="cls-2"
  d="m22.2,135.47c-.68.39-1.09.76-1.25,1.11-.16.35.04.68.59,1s1.13.43,1.73.34c.61-.09,1.25-.33,1.92-.72.67-.39,1.08-.75,1.23-1.1.16-.35-.04-.68-.59-1-.55-.32-1.13-.43-1.73-.34-.6.09-1.23.32-1.91.71Zm2.46,1.42c-.35.2-.66.35-.95.46-.28.11-.56.16-.84.16s-.55-.08-.81-.23c-.26-.15-.39-.3-.39-.46s.09-.32.27-.49c.19-.16.45-.35.8-.54.34-.2.65-.35.93-.46.28-.1.56-.15.84-.15.28,0,.55.07.81.22.26.15.39.31.39.47,0,.16-.09.32-.27.48-.18.16-.44.34-.78.54Zm4.55,1.52c.22-.16.33-.32.32-.48,0-.16-.12-.31-.36-.45-.34-.2-.73-.27-1.17-.22-.43.05-.94.24-1.51.57l-.22.13c.3-.1.63-.13.98-.09.36.04.68.15.97.31.42.24.62.5.6.78-.01.28-.24.55-.69.81-.26.15-.55.26-.87.32-.31.06-.64.07-.99.02-.33-.05-.66-.17-.97-.35-.6-.35-.83-.7-.68-1.04.16-.35.56-.71,1.21-1.08.75-.43,1.43-.69,2.04-.77.62-.08,1.21.04,1.75.35.4.23.6.48.58.73,0,.26-.18.5-.5.74l-.52-.3Zm-3.42-.09c-.29.17-.45.36-.48.57-.02.21.13.41.47.61.28.16.58.24.91.24.33,0,.65-.09.95-.26.32-.19.48-.38.48-.57,0-.2-.14-.38-.44-.55-.17-.1-.36-.17-.58-.22-.22-.05-.45-.06-.68-.03-.23.02-.44.09-.64.2Zm9.15.47l-8.29,2.9-.53-.3,8.28-2.9.53.31Zm-4.93,3.17c1.13.13,2.12.18,2.98.16.86-.02,1.48-.15,1.86-.37.24-.14.37-.28.39-.44.03-.15-.09-.31-.36-.46-.28-.16-.58-.23-.9-.21-.32.02-.64.11-.97.28l-.54-.31c.5-.26,1-.38,1.52-.37.52,0,.98.13,1.4.37.39.23.6.47.62.72.02.26-.16.49-.55.72-.32.18-.75.31-1.28.38-.53.07-1.09.1-1.69.08-.59-.02-1.14-.06-1.66-.14l2.14,1.24-.45.26-2.9-1.67.39-.23Zm5.19,1.02c-.68.39-1.09.76-1.25,1.11-.15.35.04.68.59,1,.55.32,1.13.43,1.73.34.61-.09,1.25-.33,1.92-.72.67-.39,1.08-.76,1.23-1.1.15-.35-.04-.68-.59-1-.55-.32-1.12-.43-1.73-.34-.6.09-1.23.33-1.91.71Zm2.46,1.42c-.35.2-.66.35-.95.46-.28.11-.56.16-.84.16s-.55-.08-.81-.23c-.26-.15-.39-.3-.39-.47s.09-.32.27-.49c.19-.16.45-.35.8-.54.34-.2.65-.35.93-.46.28-.1.56-.15.84-.15.28,0,.55.07.81.22.26.15.39.31.39.47,0,.16-.09.32-.27.48-.18.16-.44.34-.78.54Zm-.59,1.64c1.13.13,2.12.18,2.98.16.86-.03,1.48-.15,1.86-.37.24-.14.37-.28.39-.44.03-.15-.09-.31-.36-.47-.28-.16-.58-.23-.9-.21-.32.02-.64.11-.97.28l-.54-.31c.5-.25,1-.38,1.52-.37.52,0,.98.13,1.4.37.39.23.6.47.62.72.02.26-.16.49-.55.72-.32.18-.75.31-1.28.38-.53.07-1.09.1-1.68.08-.59-.02-1.14-.06-1.66-.14l2.14,1.24-.45.26-2.9-1.67.39-.23Zm3.87,1.6l.45-.26,4.98-.38.58.34-2.8,1.62.62.36-.47.27-.62-.36-.97.56-.55-.32.97-.56-2.2-1.27Zm4.85-.22l-3.8.28,1.66.96,2.14-1.24Z"
  shape-rendering="crispEdges"
 />
 <path
  class="cls-4"
  d="m141.42,130.88l18.07,10.43c.72.41.72,1.09,0,1.5l-13.03,7.52c-.72.41-1.88.41-2.6,0l-18.07-10.43c-.72-.41-.72-1.09,0-1.5l13.03-7.52c.72-.41,1.88-.41,2.6,0Z"
 />
 <path
  class="cls-6"
  d="m128.92,149.66c-1.2-.16-3.66-.84-3.93-2.27m2.31,4.83c-1.86-.27-5.81-1.44-6.76-3.9m5.54,6.3c-2.48-.39-7.85-2.04-9.53-5.49m7.79,7.83c-3.01-.41-9.61-2.35-11.86-6.83"
 />
</svg>
