<svg
 xmlns="http://www.w3.org/2000/svg"
 xmlns:xlink="http://www.w3.org/1999/xlink"
 viewBox="0 0 386.32 223.24"
>
 <defs>
  <style>
   .cls-1 {
    opacity: 0.75;
    stroke: url(#linear-gradient-4);
   }

   .cls-1,
   .cls-2 {
    isolation: isolate;
    stroke-width: 0.5px;
   }

   .cls-1,
   .cls-2,
   .cls-3,
   .cls-4,
   .cls-5 {
    fill: none;
   }

   .cls-6 {
    fill: #fff;
   }

   .cls-2 {
    opacity: 0.7;
    stroke: url(#linear-gradient-5);
   }

   .cls-7 {
    fill: rgba(255, 255, 255, 0.7);
   }

   .cls-8 {
    fill: #5ce1e6;
   }

   .cls-9 {
    opacity: 0.9;
   }

   .cls-3 {
    stroke-width: 0.53px;
   }

   .cls-3,
   .cls-5 {
    stroke: #fff;
   }

   .cls-10 {
    fill: url(#linear-gradient-6);
    fill-rule: evenodd;
   }

   .cls-11 {
    fill: url(#linear-gradient-3);
   }

   .cls-12 {
    fill: url(#linear-gradient);
   }

   .cls-4 {
    stroke: url(#linear-gradient-2);
    stroke-width: 0.69px;
   }

   .cls-5 {
    stroke-linecap: round;
    stroke-linejoin: round;
    stroke-width: 1.38px;
   }
  </style>
  <linearGradient
   id="linear-gradient"
   x1="198.58"
   y1="441.63"
   x2="376.58"
   y2="157.39"
   gradientTransform="translate(-315.27 117.59) rotate(30) scale(1 -.87) skewX(26.57)"
   gradientUnits="userSpaceOnUse"
  >
   <stop offset="0" stop-color="#fff" stop-opacity=".4" />
   <stop offset="1" stop-color="#fff" stop-opacity=".1" />
  </linearGradient>
  <linearGradient
   id="linear-gradient-2"
   x1="204.21"
   y1="435.57"
   x2="371.71"
   y2="161.07"
   gradientTransform="translate(-314.97 117.76) rotate(30) scale(1 -.87) skewX(26.57)"
   gradientUnits="userSpaceOnUse"
  >
   <stop offset="0" stop-color="#fff" />
   <stop offset="1" stop-color="#fff" stop-opacity=".1" />
  </linearGradient>
  <linearGradient
   id="linear-gradient-3"
   x1="8.61"
   y1="337.75"
   x2="175.18"
   y2="-3.58"
   gradientTransform="translate(0 270.12) scale(1 -1)"
   gradientUnits="userSpaceOnUse"
  >
   <stop offset="0" stop-color="#5ae5ea" />
   <stop offset=".29" stop-color="#5ae5ea" stop-opacity="0" />
   <stop offset="1" stop-color="#5ae5ea" />
  </linearGradient>
  <linearGradient
   id="linear-gradient-4"
   x1="-792.93"
   y1="828.48"
   x2="-792.93"
   y2="808.69"
   gradientTransform="translate(170.59 -602.97) rotate(-150) scale(1 -.87) skewX(26.57)"
   gradientUnits="userSpaceOnUse"
  >
   <stop offset="0" stop-color="#fff" />
   <stop offset=".48" stop-color="#000" stop-opacity=".5" />
   <stop offset=".94" stop-color="#fff" />
  </linearGradient>
  <linearGradient
   id="linear-gradient-5"
   x1="-792.93"
   y1="828.48"
   x2="-792.93"
   y2="808.69"
   gradientTransform="translate(160.25 -608.95) rotate(-150) scale(1 -.87) skewX(26.57)"
   gradientUnits="userSpaceOnUse"
  >
   <stop offset="0" stop-color="#fff" />
   <stop offset=".48" stop-color="#000" stop-opacity=".5" />
   <stop offset=".94" stop-color="#fff" />
  </linearGradient>
  <linearGradient
   id="linear-gradient-6"
   x1="249.99"
   y1="223.51"
   x2="248.11"
   y2="116.4"
   gradientTransform="translate(0 270.12) scale(1 -1)"
   gradientUnits="userSpaceOnUse"
  >
   <stop offset="0" stop-color="#fff" />
   <stop offset="1" stop-color="#fff" stop-opacity="0" />
  </linearGradient>
 </defs>
 <g>
  <path
   class="cls-12"
   d="m251.12,2.96l130.25,75.2c6.6,3.81,6.6,9.99,0,13.8l-222.27,128.33c-6.6,3.81-17.3,3.81-23.9,0L4.95,145.08c-6.6-3.81-6.6-9.99,0-13.8L227.22,2.96c6.6-3.81,17.3-3.81,23.9,0Z"
  />
  <path
   class="cls-4"
   d="m250.82,3.13l130.25,75.2c6.43,3.72,6.43,9.74,0,13.45l-222.27,128.33c-6.43,3.72-16.87,3.72-23.3,0L5.25,144.91c-6.43-3.72-6.43-9.74,0-13.45L227.52,3.13c6.43-3.72,16.87-3.72,23.3,0Z"
  />
 </g>
 <path
  class="cls-11"
  d="m82.62,86.44l154.15,89-65.72,37.95c-11.27,6.5-16.9,9.76-23.9,9.76s-12.63-3.25-23.9-9.76l-106.35-61.4c-11.27-6.51-16.9-9.76-16.9-13.8s5.63-7.29,16.9-13.8l65.72-37.95Z"
 />
 <path
  class="cls-6"
  d="m314.15,69.46l-7.59,4.38-1.53-.88,3.3-1.91-3.25-1.88-3.3,1.91-1.52-.88,7.59-4.38,1.52.88-3.08,1.78,3.25,1.88,3.08-1.78,1.53.88Zm2.57,3.28c.58.34.98.71,1.19,1.11.22.41.23.83.03,1.25-.19.42-.6.81-1.23,1.17-.62.36-1.3.6-2.02.71-.72.11-1.44.11-2.16-.02-.7-.12-1.34-.35-1.93-.69-.58-.34-.98-.71-1.2-1.12-.21-.41-.21-.82-.02-1.24.19-.42.6-.81,1.23-1.17.62-.36,1.3-.6,2.02-.71.73-.12,1.45-.11,2.15.01.71.13,1.36.36,1.94.7Zm-1.31.76c-.42-.24-.93-.36-1.53-.36-.59,0-1.17.16-1.73.49-.57.33-.85.66-.86,1.01,0,.34.21.63.63.88.42.24.93.37,1.52.37.6,0,1.18-.17,1.74-.5.57-.33.85-.66.85-1,0-.34-.2-.64-.62-.88Zm8.19,3.21c.58.34.98.71,1.19,1.11.22.41.23.83.03,1.25-.19.42-.6.81-1.23,1.17-.62.36-1.3.6-2.02.71-.72.11-1.44.11-2.16-.02-.7-.12-1.34-.35-1.92-.69-.58-.34-.98-.71-1.2-1.12-.21-.41-.21-.82-.02-1.24.19-.42.6-.81,1.23-1.17.62-.36,1.3-.6,2.02-.71.73-.12,1.45-.11,2.15.01.71.13,1.36.36,1.94.7Zm-1.31.76c-.42-.24-.93-.36-1.53-.36-.59,0-1.17.16-1.73.49-.57.33-.85.66-.86,1.01,0,.34.21.63.63.88.42.24.93.37,1.52.37.6,0,1.18-.17,1.74-.5.57-.33.85-.66.85-1,0-.34-.2-.64-.62-.88Z"
 />
 <path
  class="cls-8"
  d="m329.84,82.76c.37.32.51.66.44,1.01-.06.36-.32.67-.77.93-.64.37-1.36.54-2.16.5-.79-.03-1.59-.28-2.4-.75l-3.26-1.88,7.59-4.38,3.19,1.84c.77.44,1.19.88,1.26,1.31.08.43-.19.83-.8,1.18-.47.27-.99.42-1.54.45-.55.03-1.06-.04-1.56-.22Zm-2.23-1.86l1.36.79c.38.22.75.34,1.11.35.37.02.72-.07,1.03-.25.32-.18.46-.38.44-.59-.02-.21-.23-.43-.64-.66l-1.34-.78-1.97,1.14Zm-1.73,2.66c.4.23.8.36,1.18.39.39.02.76-.07,1.1-.26.34-.19.48-.41.44-.64-.03-.23-.24-.46-.64-.7l-1.43-.83-2.09,1.2,1.44.83Zm10.99.81c.5.29.81.61.94.95.12.34.06.68-.19.99l1.24-.71,1.51.87-5.96,3.44-1.51-.87,1.25-.72c-.55.15-1.13.18-1.73.12-.6-.07-1.14-.25-1.65-.54-.5-.29-.83-.62-.99-.99-.16-.37-.12-.76.11-1.15.24-.4.68-.78,1.3-1.14s1.28-.61,1.96-.74c.7-.14,1.37-.16,2.01-.07.65.09,1.22.28,1.72.57Zm-.85,1.04c-.47-.27-1.01-.4-1.6-.39-.6.01-1.16.17-1.7.48-.54.31-.82.64-.84.98-.01.34.21.65.69.92.46.26.99.39,1.59.39.62,0,1.19-.16,1.71-.47.53-.31.8-.64.81-.99.02-.35-.2-.66-.66-.93Zm9.34,3.85c.69.4,1.01.85.97,1.34-.04.5-.47.98-1.29,1.45l-3.46,2-1.51-.87,3.29-1.9c.47-.27.72-.56.73-.85.02-.29-.18-.56-.6-.81-.43-.25-.91-.37-1.45-.35-.54.01-1.07.17-1.59.47l-3.16,1.83-1.52-.88,5.96-3.44,1.52.88-1.19.69c.56-.14,1.13-.17,1.71-.09.6.08,1.13.25,1.6.53Zm1.03,7.58l.64-2.64-2.6,1.5-1.52-.88,7.96-4.6,1.52.88-4.47,2.58,4.43-.3,1.8,1.04-5.47.27-.42,3.21-1.85-1.07Z"
 />
 <path
  class="cls-6"
  d="m302.5,54.32c-1.89-1.09-4.3-1.84-6.92-2.14-2.62-.3-5.34-.15-7.81.44-2.47.59-4.58,1.59-6.07,2.87-1.49,1.28-2.28,2.79-2.28,4.34s.79,3.05,2.28,4.34c1.49,1.28,3.6,2.28,6.07,2.87,2.47.59,5.19.75,7.81.44,2.62-.3,5.03-1.04,6.92-2.14l-4.78-2.76c-.95.55-2.15.92-3.46,1.07-1.31.15-2.67.07-3.91-.22-1.24-.3-2.29-.8-3.03-1.44-.74-.64-1.14-1.4-1.14-2.17s.4-1.53,1.14-2.17c.74-.64,1.8-1.14,3.03-1.44,1.23-.3,2.59-.37,3.91-.22,1.31.15,2.52.52,3.46,1.07l4.78-2.76Z"
 />
 <path
  class="cls-8"
  d="m302.5,54.32c-1.26-.72-2.75-1.3-4.39-1.69-1.64-.39-3.4-.59-5.17-.59s-3.53.2-5.17.59c-1.64.39-3.13.97-4.39,1.69l4.78,2.76c.63-.36,1.37-.65,2.19-.85.82-.2,1.7-.3,2.59-.3s1.77.1,2.59.3c.82.2,1.57.48,2.19.85l4.78-2.76Z"
 />
 <ellipse class="cls-8" cx="292.94" cy="59.84" rx="4.22" ry="2.44" />
 <path
  class="cls-6"
  d="m295.93,61.57c.39-.23.7-.5.92-.79.21-.3.32-.61.32-.93s-.11-.64-.32-.93c-.21-.3-.52-.56-.92-.79-.39-.23-.86-.41-1.37-.53-.51-.12-1.06-.19-1.62-.19s-1.1.06-1.62.19c-.51.12-.98.3-1.37.53l2.99,1.72,2.99,1.72Z"
 />
 <g class="cls-9">
  <path
   class="cls-1"
   d="m139.58,207.86h0c-4.61-2.66-4.61-6.98,0-9.64h0c4.61-2.66,12.09-2.66,16.71,0h0c4.61,2.66,4.61,6.98,0,9.64h0c-4.61,2.66-12.09,2.66-16.71,0Z"
  />
  <path
   class="cls-2"
   d="m129.24,201.88h0c-4.61-2.66-4.61-6.98,0-9.64h0c4.61-2.66,12.09-2.66,16.71,0h0c4.61,2.66,4.61,6.98,0,9.64h0c-4.61,2.66-12.09,2.66-16.71,0Z"
  />
 </g>
 <path
  class="cls-6"
  d="m243.5,19.42l1.15.66-2.43,1.4-7.59-4.38,1.29-.75,6.44,3.72,1.14-.66Zm-5.6,2.53c.37.22.61.47.72.76.11.29.06.61-.15.94-.21.34-.6.67-1.16.99-.56.32-1.13.54-1.71.66-.59.12-1.14.16-1.65.09-.52-.06-.96-.19-1.33-.41-.42-.24-.66-.51-.74-.81-.09-.3.02-.61.31-.94-.63.19-1.24.26-1.84.22-.59-.04-1.12-.2-1.6-.48-.74-.43-1.05-.91-.95-1.45.11-.54.6-1.05,1.44-1.54.85-.49,1.74-.77,2.67-.83.93-.06,1.77.13,2.51.55.48.28.76.59.83.93.08.34-.05.7-.38,1.06.57-.17,1.11-.23,1.64-.19.52.05.98.19,1.4.43Zm-1.41.59c-.39-.22-.81-.32-1.28-.3-.47.03-.92.17-1.36.42-.44.25-.68.51-.73.78-.04.27.13.52.52.75.39.22.82.32,1.3.29.47-.02.92-.16,1.36-.41.43-.25.67-.51.71-.78s-.13-.52-.52-.75Zm-3.21-2.1c-.44-.25-.93-.37-1.47-.34-.54.03-1.06.19-1.56.48-.5.29-.78.59-.83.9-.04.31.15.6.59.85.44.26.93.36,1.46.31.53-.04,1.04-.2,1.52-.48.47-.27.75-.57.83-.88.08-.31-.1-.59-.54-.84Zm-3.72,8.63c-.5.29-1.02.49-1.56.59-.53.11-1.04.12-1.53.05-.49-.07-.93-.22-1.31-.43-.48-.28-.75-.59-.8-.93-.05-.34.14-.66.56-.98l-.05-.03c-.67.22-1.31.32-1.9.32-.6,0-1.15-.14-1.68-.45-.64-.37-.95-.79-.93-1.27.03-.47.44-.94,1.23-1.39.81-.47,1.67-.73,2.57-.78.91-.05,1.81.14,2.69.57l-1.21.7c-.47-.22-.97-.33-1.49-.33-.52,0-1,.14-1.45.4-.42.24-.63.49-.63.75,0,.26.16.49.52.7.42.24.91.34,1.46.27.54-.06,1.13-.26,1.74-.62l.29-.17,1.01.58-.29.17c-1.18.67-1.37,1.23-.56,1.7.35.2.73.3,1.15.29.42,0,.81-.12,1.18-.34.37-.22.57-.46.59-.74.03-.27-.15-.55-.53-.83l1.2-.7c.7.46,1.02.94.98,1.43-.04.5-.45.98-1.25,1.44Zm-7.46,4.31c-.5.29-1.02.49-1.56.59-.53.11-1.04.12-1.53.05-.49-.07-.93-.22-1.31-.43-.48-.28-.75-.59-.8-.93-.05-.34.14-.66.56-.98l-.05-.03c-.67.22-1.31.32-1.9.32-.6,0-1.15-.14-1.68-.45-.64-.37-.95-.79-.93-1.27.03-.47.44-.94,1.23-1.39.81-.47,1.67-.73,2.57-.78.91-.05,1.81.14,2.69.57l-1.21.7c-.47-.22-.97-.33-1.5-.33-.52,0-1,.14-1.45.4-.42.24-.63.49-.63.75,0,.26.16.49.52.7.42.24.91.34,1.46.27.54-.06,1.13-.26,1.74-.62l.29-.17,1.01.58-.29.17c-1.18.67-1.37,1.23-.56,1.7.35.2.74.3,1.15.29.42,0,.81-.12,1.18-.34.37-.22.57-.46.59-.74.03-.27-.15-.55-.53-.83l1.2-.7c.7.46,1.02.94.98,1.43-.04.5-.45.98-1.25,1.44Zm-14.12,6.86l-3.88-5.51,1.29-.75,3.7,5.45,3.76-2.17,1.07.61-5.01,2.89-.93-.53Zm-1.76.71l1.15.66-2.43,1.4-7.59-4.38,1.29-.75,6.44,3.72,1.14-.66Zm-9.85,4.65c.98.41,1.84.4,2.59-.03.54-.31.74-.68.57-1.09-.16-.41-.7-.88-1.62-1.41l-.38-.2c.28.29.35.6.23.94-.13.34-.44.65-.93.93-.75.43-1.55.64-2.42.63-.87-.01-1.71-.25-2.52-.72-.49-.28-.83-.59-1.02-.93-.19-.33-.2-.67-.04-1.03.16-.35.53-.69,1.1-1.02,1.1-.63,2.19-.87,3.28-.71,1.09.16,2.23.58,3.42,1.27,1.36.79,2.16,1.5,2.4,2.14.24.64-.14,1.25-1.14,1.83-.75.43-1.53.64-2.34.62-.82-.01-1.6-.19-2.33-.54l1.16-.67Zm-.09-3.33c-.47-.27-.99-.42-1.58-.44-.58-.02-1.14.12-1.67.43-.45.26-.68.54-.68.85,0,.31.23.6.7.88.51.29,1.04.44,1.58.44s1.05-.13,1.52-.4c.42-.24.67-.53.73-.86.06-.33-.14-.63-.6-.89Zm-3.92,8.27c-.5.29-1.02.49-1.56.59-.53.11-1.04.12-1.53.05-.49-.07-.93-.22-1.31-.43-.48-.28-.75-.59-.8-.93-.05-.34.14-.66.56-.98l-.05-.03c-.67.22-1.31.32-1.9.32-.6,0-1.15-.14-1.68-.45-.64-.37-.95-.79-.93-1.27.03-.47.44-.94,1.23-1.39.81-.47,1.67-.73,2.57-.78.91-.05,1.81.14,2.69.57l-1.22.7c-.47-.22-.97-.33-1.49-.33-.52,0-1,.14-1.45.4-.42.24-.63.49-.63.75,0,.26.16.49.52.7.42.24.91.34,1.46.27.55-.06,1.13-.26,1.74-.62l.29-.17,1.01.58-.29.17c-1.18.67-1.37,1.23-.56,1.7.35.2.74.3,1.15.29s.81-.12,1.18-.34c.37-.22.57-.46.59-.74.03-.27-.15-.55-.53-.83l1.21-.7c.69.46,1.02.94.98,1.43-.04.5-.45.98-1.25,1.44Zm-11.06,6.38c-.5.29-1.02.49-1.56.59-.53.11-1.04.12-1.53.05-.49-.07-.93-.22-1.31-.43-.48-.28-.75-.59-.8-.93-.05-.34.14-.66.56-.98l-.05-.03c-.67.22-1.31.32-1.9.32-.6,0-1.15-.14-1.68-.45-.64-.37-.95-.79-.93-1.27.03-.47.44-.94,1.23-1.39.81-.47,1.67-.73,2.57-.78.91-.05,1.81.14,2.69.57l-1.21.7c-.47-.22-.97-.33-1.5-.33-.52,0-1,.14-1.45.4-.42.24-.63.49-.63.75,0,.26.17.49.52.7.42.24.91.34,1.46.27.54-.06,1.12-.26,1.74-.62l.29-.17,1.01.58-.29.17c-1.18.67-1.37,1.23-.56,1.7.35.2.74.3,1.15.29.42,0,.81-.12,1.18-.34.37-.22.57-.46.59-.74.03-.27-.15-.55-.53-.83l1.21-.7c.7.46,1.02.94.98,1.43-.04.5-.45.98-1.25,1.44Zm-6.99,1.72c.37.22.61.47.72.76.11.29.06.61-.15.94-.21.34-.6.67-1.16.99s-1.13.54-1.71.66c-.59.12-1.14.16-1.64.09-.52-.06-.96-.19-1.33-.41-.42-.24-.66-.51-.74-.81-.09-.3.02-.61.31-.94-.63.19-1.24.26-1.84.22-.59-.04-1.12-.2-1.6-.48-.74-.43-1.05-.91-.95-1.45.12-.54.6-1.05,1.44-1.54.85-.49,1.74-.77,2.67-.83.93-.06,1.77.13,2.51.55.48.28.76.59.83.93.08.34-.05.7-.38,1.06.57-.17,1.11-.23,1.63-.19.52.05.98.19,1.4.43Zm-1.41.59c-.39-.22-.81-.32-1.28-.3-.47.03-.92.17-1.35.42-.44.25-.68.51-.73.78-.04.27.13.52.52.75.39.22.82.32,1.3.29.47-.02.93-.16,1.35-.41.43-.25.67-.51.71-.78s-.13-.52-.52-.75Zm-3.21-2.1c-.44-.25-.93-.37-1.47-.34-.54.03-1.06.19-1.56.48-.5.29-.78.59-.83.9-.04.31.15.6.59.85.44.26.93.36,1.46.31.53-.04,1.04-.2,1.52-.48.47-.27.75-.57.83-.88.08-.31-.1-.59-.54-.84Zm-8.03,4.61c-.47-.2-.92-.3-1.37-.3-.45,0-.87.12-1.26.34-.54.31-.74.67-.57,1.07.16.41.71.88,1.65,1.42l.38.2c-.27-.29-.34-.61-.21-.96.13-.34.43-.65.91-.93.75-.43,1.55-.64,2.42-.63.88.02,1.71.26,2.52.72.49.28.83.59,1.02.93.19.34.21.68.04,1.03-.16.36-.52.7-1.09,1.02-1.1.63-2.19.87-3.27.72-1.08-.14-2.22-.56-3.4-1.24-1.34-.77-2.15-1.49-2.43-2.14-.29-.65.06-1.25,1.03-1.81.75-.43,1.56-.65,2.41-.66.85,0,1.65.18,2.38.53l-1.16.67Zm.09,3.33c.47.27.99.41,1.57.43.58.03,1.14-.11,1.68-.42.44-.26.67-.54.68-.85,0-.31-.24-.6-.72-.88-.51-.29-1.03-.44-1.57-.45-.54,0-1.05.13-1.52.4-.27.16-.47.34-.6.53-.13.21-.16.42-.1.63.07.22.26.41.58.6Zm-7.45-.51c-.37,1.13-.52,2.12-.45,2.96.06.85.42,1.46,1.08,1.84.39.22.79.35,1.22.37.42.02.84-.08,1.26-.33.44-.25.62-.53.56-.82-.06-.29-.33-.59-.83-.91l1.19-.69c.82.53,1.22,1.07,1.19,1.61-.03.55-.42,1.04-1.17,1.47-.74.43-1.51.65-2.32.66-.81.02-1.56-.17-2.25-.57-.55-.32-.94-.74-1.16-1.27-.23-.52-.32-1.07-.28-1.65.05-.58.18-1.12.4-1.65l-3.6,2.08-1-.58,5.27-3.04.9.52Zm-5,9.22l1.15.66-2.43,1.4-7.59-4.38,1.29-.75,6.44,3.72,1.14-.66Zm-7.38,1.27c-1.21-.7-2.38-1.12-3.5-1.27-1.11-.14-2.17.07-3.17.65-1,.58-1.38,1.19-1.12,1.84.26.65.99,1.32,2.19,2.01,1.2.69,2.35,1.11,3.46,1.25,1.12.15,2.18-.07,3.18-.65,1-.58,1.38-1.19,1.13-1.83-.25-.64-.98-1.31-2.18-2.01Zm-4.37,2.52c-.88-.51-1.44-.95-1.69-1.35-.25-.39-.07-.77.55-1.12.62-.36,1.28-.47,1.96-.32.68.14,1.46.47,2.33.97.87.5,1.42.95,1.67,1.33.24.39.05.76-.57,1.12-.62.36-1.27.46-1.95.32-.67-.14-1.44-.46-2.3-.96Zm-6.17.22c-.37,1.13-.52,2.12-.45,2.96.07.85.42,1.46,1.08,1.84.39.22.79.35,1.21.37.42.02.84-.08,1.26-.33.44-.25.62-.53.56-.82-.06-.29-.33-.59-.83-.91l1.19-.69c.82.53,1.22,1.07,1.19,1.61-.03.55-.42,1.04-1.17,1.47-.74.43-1.51.65-2.32.66-.81.02-1.56-.17-2.25-.57-.55-.32-.94-.74-1.16-1.27-.23-.52-.32-1.07-.28-1.65.05-.58.18-1.12.4-1.65l-3.6,2.08-1-.58,5.27-3.04.9.52Zm-2.63,7.14c.37.22.61.47.72.76.11.29.06.61-.15.94-.21.34-.6.67-1.16.99-.56.32-1.13.54-1.71.66-.59.12-1.14.15-1.65.09-.52-.06-.96-.19-1.33-.41-.42-.24-.66-.51-.74-.81-.09-.3.02-.61.31-.94-.63.19-1.24.26-1.84.22-.59-.04-1.12-.2-1.6-.48-.74-.43-1.05-.91-.95-1.45.11-.54.6-1.05,1.44-1.54.85-.49,1.74-.77,2.67-.83.93-.06,1.77.13,2.51.55.48.28.76.59.83.93.08.34-.05.7-.38,1.06.57-.17,1.11-.23,1.63-.19.52.05.98.19,1.4.43Zm-1.41.59c-.39-.22-.81-.33-1.28-.3-.47.03-.92.17-1.35.42-.44.25-.68.51-.73.78-.04.27.13.52.52.74.39.22.82.32,1.3.29.47-.02.93-.16,1.36-.41.43-.25.67-.51.71-.78.04-.27-.13-.52-.52-.75Zm-3.2-2.1c-.44-.25-.93-.37-1.47-.34-.54.03-1.06.19-1.56.48-.5.29-.78.59-.83.9-.04.31.15.6.59.85.44.26.93.36,1.46.31.53-.04,1.04-.2,1.52-.48.47-.27.75-.57.83-.88.08-.31-.1-.59-.54-.84Z"
 />
 <path
  class="cls-6"
  d="m43.18,130.98l-6.32,2.19-1-.58,2.85-2.88-4.98,1.64-1-.58,3.8-3.65.9.52-3.24,2.88,5.23-1.73.9.52-3,3.02,4.99-1.87.9.52Zm.5,4.87l-2.14-1.23-1.48.41-.87-.5,6.85-1.8.94.54-3.13,3.95-.87-.51.71-.86Zm.4-.5l1.53-1.85-3.21.88,1.68.97Zm5.23,2.06l-.33,2.76-1-.57.34-2.51-2.34,1.35-.82-.47,5.06-2.92.82.47-2.32,1.34,4.32-.18.99.57-4.73.16Zm8.07,6.06c-.25.14-.54.24-.87.3-.33.05-.68.04-1.05-.02-.37-.07-.74-.2-1.09-.41-.34-.2-.59-.41-.75-.64-.15-.23-.19-.45-.14-.68.06-.22.22-.42.48-.6l.87.51c-.2.14-.29.3-.29.49,0,.19.15.36.43.52.25.14.51.21.77.21.27,0,.51-.06.72-.18.18-.1.28-.22.29-.34.02-.13-.01-.25-.09-.38-.08-.12-.21-.29-.38-.49-.22-.24-.37-.45-.47-.62-.1-.17-.12-.35-.06-.54.05-.19.23-.38.54-.55.27-.16.58-.26.92-.3.34-.04.69-.02,1.05.06.36.08.71.21,1.03.4.52.3.8.61.85.92.06.32-.09.61-.45.87l-.88-.51c.16-.13.23-.28.22-.44,0-.16-.13-.32-.39-.46-.23-.13-.47-.21-.73-.22-.25-.01-.49.04-.71.17-.17.1-.27.21-.29.33-.01.12.02.24.09.36.09.12.21.28.38.48.22.24.38.45.47.63.11.18.13.36.07.55-.05.2-.24.39-.56.57Zm6.03-.81l-3,1.73c-.45.26-.69.51-.71.75-.02.24.15.47.51.67.35.2.74.3,1.15.29.42-.01.86-.15,1.3-.41l3-1.73.82.47-3,1.73c-.69.4-1.4.6-2.12.6-.71,0-1.36-.17-1.95-.51-.58-.34-.87-.71-.87-1.12,0-.41.35-.82,1.05-1.22l3-1.73.82.47Zm3.78,8.03l-.82-.47,1.28-3.58-3.74,2.16-.82-.47,5.05-2.92.82.47-1.29,3.58,3.75-2.16.82.47-5.06,2.92Zm5.82,2.1l-2.14-1.23-1.48.41-.87-.51,6.85-1.8.94.54-3.13,3.95-.88-.5.71-.86Zm.4-.5l1.53-1.85-3.21.88,1.68.97Zm3.75,4.16l.76-1.9-.58-.34-2.02,1.17-.82-.47,5.06-2.92,1.78,1.03c.58.33.88.67.89,1,.02.34-.2.64-.67.91-.4.23-.83.35-1.31.37-.47.02-.96-.07-1.45-.27l-.73,1.95-.92-.53Zm.76-2.57l.9.52c.66.38,1.28.4,1.86.07.28-.16.41-.33.4-.51,0-.18-.17-.37-.51-.57l-.9-.52-1.76,1.01Zm7.46,1.47l-5.06,2.92-.82-.47,5.06-2.92.82.47Z"
 />
 <path
  class="cls-7"
  d="m22.27,135.47c-.68.39-1.09.76-1.25,1.11-.16.35.04.68.59,1,.55.32,1.13.43,1.73.34.61-.09,1.25-.33,1.92-.72.67-.39,1.08-.75,1.23-1.1.16-.35-.04-.68-.59-1-.55-.32-1.13-.43-1.73-.34-.6.09-1.23.32-1.91.71Zm2.46,1.42c-.35.2-.66.35-.95.46-.28.11-.56.16-.84.16s-.55-.08-.81-.23c-.26-.15-.39-.3-.39-.46s.09-.32.27-.49c.19-.16.45-.35.8-.54.34-.2.65-.35.93-.46.28-.1.56-.15.84-.15.28,0,.55.07.81.22.26.15.39.31.39.47,0,.16-.09.32-.27.48-.18.16-.44.34-.78.54Zm4.55,1.52c.22-.16.33-.32.32-.48,0-.16-.12-.31-.36-.45-.34-.2-.73-.27-1.17-.22-.43.05-.94.24-1.51.57l-.22.13c.3-.1.63-.13.98-.09.36.04.68.15.97.31.42.24.62.5.6.78-.01.28-.24.55-.69.81-.26.15-.55.26-.87.32-.31.06-.64.07-.99.02-.33-.05-.66-.17-.97-.35-.6-.35-.83-.7-.68-1.04.16-.35.56-.71,1.21-1.08.75-.43,1.43-.69,2.04-.77.62-.08,1.2.04,1.75.35.4.23.6.48.59.73,0,.26-.18.5-.5.74l-.52-.3Zm-3.42-.09c-.29.17-.45.36-.48.57-.02.21.13.41.47.61.28.16.58.24.91.24.33,0,.65-.09.95-.26.32-.19.48-.38.48-.57,0-.2-.14-.38-.44-.55-.17-.1-.36-.17-.58-.22-.22-.05-.45-.06-.68-.03-.23.02-.44.09-.64.2Zm9.15.47l-8.29,2.9-.53-.3,8.28-2.9.53.31Zm-4.93,3.17c1.13.13,2.12.18,2.98.16.86-.02,1.48-.15,1.86-.37.24-.14.37-.28.39-.44.03-.15-.09-.31-.36-.46-.28-.16-.58-.23-.9-.21-.32.02-.64.11-.97.28l-.54-.31c.5-.26,1-.38,1.52-.37.52,0,.98.13,1.4.37.39.23.6.47.62.72s-.16.49-.55.72c-.32.18-.75.31-1.28.38-.53.07-1.09.1-1.68.08-.59-.02-1.14-.06-1.66-.14l2.14,1.24-.45.26-2.9-1.67.39-.23Zm5.19,1.02c-.68.39-1.09.76-1.25,1.11-.16.35.04.68.59,1,.55.32,1.13.43,1.73.34.61-.09,1.25-.33,1.92-.72.67-.39,1.08-.76,1.23-1.1.16-.35-.04-.68-.59-1-.55-.32-1.13-.43-1.73-.34-.6.09-1.23.33-1.91.71Zm2.46,1.42c-.35.2-.66.35-.95.46-.28.11-.56.16-.84.16s-.55-.08-.81-.23c-.26-.15-.39-.3-.39-.47s.09-.32.27-.49c.19-.16.45-.35.8-.54.34-.2.65-.35.93-.46.28-.1.56-.15.84-.15.28,0,.55.07.81.22.26.15.39.31.39.47,0,.16-.09.32-.27.48-.18.16-.44.34-.78.54Zm-.59,1.64c1.13.13,2.12.18,2.98.16.86-.03,1.48-.15,1.86-.37.24-.14.37-.28.39-.44.03-.15-.09-.31-.36-.47-.28-.16-.58-.23-.9-.21-.32.02-.64.11-.97.28l-.54-.31c.5-.25,1-.38,1.52-.37.52,0,.98.13,1.4.37.39.23.6.47.62.72.02.26-.16.49-.55.72-.32.18-.75.31-1.28.38-.53.07-1.09.1-1.68.08-.59-.02-1.14-.06-1.66-.14l2.14,1.24-.45.26-2.9-1.67.39-.23Zm3.87,1.6l.45-.26,4.98-.38.59.34-2.8,1.62.62.36-.47.27-.62-.36-.97.56-.55-.32.97-.56-2.2-1.27Zm4.85-.22l-3.8.28,1.66.96,2.14-1.24Z"
  shape-rendering="crispEdges"
 />
 <path
  class="cls-6"
  d="m151.37,141.33c.25-.15.66-.15.92,0l4.84,2.79c.25.15.25.38,0,.53l-2.28,1.32c-.25.15-.66.15-.92,0l-4.83-2.79c-.25-.15-.25-.38,0-.53l2.28-1.32Z"
 />
 <path
  class="cls-6"
  d="m130.79,135.36c.25-.15.66-.15.92,0l4.84,2.79c.25.15.25.38,0,.53l-2.28,1.32c-.25.15-.66.15-.92,0l-4.84-2.79c-.25-.15-.25-.38,0-.53l2.28-1.32Z"
 />
 <path
  class="cls-6"
  d="m135.9,132.4c.25-.15.66-.15.92,0l4.84,2.79c.25.15.25.38,0,.53l-2.28,1.32c-.25.15-.66.15-.92,0l-4.83-2.79c-.25-.15-.25-.38,0-.53l2.28-1.32Z"
 />
 <path
  class="cls-6"
  d="m142.3,137.57c.25-.15.66-.15.92,0l4.96,2.87c.25.15.25.38,0,.53l-4.84,2.79c-.25.15-.66.15-.92,0l-4.96-2.87c-.25-.15-.25-.38,0-.53l4.84-2.79Z"
 />
 <path
  class="cls-6"
  d="m146.26,144.29c.25-.15.66-.15.92,0l4.84,2.79c.25.15.25.38,0,.53l-2.28,1.32c-.25.15-.66.15-.92,0l-4.84-2.79c-.25-.15-.25-.38,0-.53l2.28-1.32Z"
 />
 <path
  class="cls-6"
  d="m144.99,134.91c.53.31.53.8,0,1.11-.18.1-.18.27,0,.37l1.2.7c.25.15.66.15.92,0l1.78-1.03c.25-.15.6-.23.96-.23.21,0,.31-.14.16-.23l-9.36-5.4c-.25-.15-.66-.15-.92,0l-1,.58c-.25.15-.25.38,0,.53l6.25,3.61Z"
 />
 <path
  class="cls-6"
  d="m150.68,137.39c-.17,0-.34.04-.46.11l-1.19.69c-.25.15-.25.38,0,.53l1.2.7c.18.1.46.1.64,0,.53-.31,1.39-.31,1.92,0l6.25,3.61c.25.15.66.15.92,0l1-.58c.25-.15.25-.38,0-.53l-7.65-4.41c-.12-.07-.29-.11-.46-.11h-2.18Z"
 />
 <path
  class="cls-6"
  d="m140.65,146.42c-.53-.3-.53-.8,0-1.11.18-.1.18-.27,0-.37l-1.2-.7c-.25-.15-.66-.15-.92,0l-1.78,1.03c-.25.15-.6.23-.96.23-.21,0-.31.14-.16.23l9.36,5.4c.25.15.66.15.92,0l1-.58c.25-.15.25-.38,0-.53l-6.25-3.61Z"
 />
 <path
  class="cls-6"
  d="m134.96,143.94c.17,0,.34-.04.46-.11l1.19-.69c.25-.15.25-.38,0-.53l-1.2-.7c-.18-.1-.46-.1-.64,0-.53.31-1.39.31-1.92,0l-6.25-3.61c-.25-.15-.66-.15-.92,0l-1,.58c-.25.15-.25.38,0,.53l7.65,4.41c.12.07.29.11.46.11h2.17Z"
 />
 <path
  class="cls-3"
  d="m140.89,130.29l19.7,11.37c.38.22.38.57,0,.79l-14.66,8.46c-.38.22-.99.22-1.37,0l-19.7-11.37c-.38-.22-.38-.57,0-.79l14.66-8.46c.38-.22.99-.22,1.37,0Z"
 />
 <path
  class="cls-5"
  d="m128.99,149.84c-1.2-.16-3.66-.84-3.93-2.27m2.31,4.83c-1.86-.27-5.81-1.44-6.76-3.9m5.54,6.3c-2.48-.39-7.85-2.04-9.52-5.49m7.79,7.83c-3.01-.41-9.61-2.35-11.86-6.83"
 />
 <path
  class="cls-10"
  d="m279.94,149.25l50.15-28.96c-.99-2.28-2.27-4.52-3.83-6.71-3.52-4.91-8.42-9.42-14.45-13.36-4.69-3.06-10.07-5.78-16.02-8.08-13.61-5.25-29.6-8.05-45.96-8.05s-32.36,2.8-45.96,8.05c-13.61,5.25-24.21,12.71-30.47,21.44-5.88,8.19-7.68,17.15-5.24,25.88l34.25,19.78,18.17-10.49c-5.78-3.34-9.72-7.6-11.32-12.23-1.6-4.63-.78-9.43,2.35-13.8,3.13-4.36,8.43-8.09,15.24-10.72,6.8-2.62,14.8-4.02,22.98-4.02s16.18,1.4,22.98,4.02c2.26.87,4.36,1.87,6.27,2.97,3.46,2,6.3,4.35,8.36,6.94.21.27.42.54.61.81,1.96,2.73,3.01,5.63,3.14,8.55,0,.2.01.39.01.59,0,1.56-.26,3.12-.79,4.66-.5,1.45-1.23,2.86-2.17,4.22-.06.09-.12.18-.19.26-2.07,2.88-5.11,5.52-8.97,7.75l.87.5Zm-48.4-6.83c-10.1-5.83-10.1-15.28,0-21.11,10.1-5.83,26.47-5.83,36.56,0,10.1,5.83,10.1,15.28,0,21.11-4.96,2.86-11.43,4.32-17.93,4.37-.12,0-.23,0-.35,0s-.23,0-.35,0c-6.5-.05-12.97-1.51-17.93-4.37Z"
 />
</svg>
