<svg
 xmlns="http://www.w3.org/2000/svg"
 xmlns:xlink="http://www.w3.org/1999/xlink"
 viewBox="0 0 379.83 219.57"
>
 <defs>
  <style>
   .cls-1 {
    fill: none;
    stroke: url(#linear-gradient-2);
   }

   .cls-2 {
    fill: url(#linear-gradient);
   }
  </style>
  <linearGradient
   id="linear-gradient"
   x1="354.58"
   y1="25.05"
   x2="489.51"
   y2="518.94"
   gradientTransform="translate(128.47 -307) rotate(30) scale(1 .87) skewX(-26.57)"
   gradientUnits="userSpaceOnUse"
  >
   <stop offset="0" stop-color="#fff" stop-opacity=".7" />
   <stop offset=".67" stop-color="#f9f9f9" stop-opacity=".18" />
   <stop offset="1" stop-color="#f9f9f9" stop-opacity=".1" />
  </linearGradient>
  <linearGradient
   id="linear-gradient-2"
   x1="360.22"
   y1="235.23"
   x2="538.72"
   y2="519.23"
   gradientTransform="translate(128.9 -306.75) rotate(30) scale(1 .87) skewX(-26.57)"
   gradientUnits="userSpaceOnUse"
  >
   <stop offset="0" stop-color="#fff" />
   <stop offset="1" stop-color="#fff" stop-opacity=".1" />
  </linearGradient>
 </defs>
 <path
  class="cls-2"
  d="m253.14,4.29l119.51,69c9.57,5.52,9.57,14.48,0,20l-211.31,122c-9.57,5.52-25.08,5.52-34.64,0L7.18,146.28c-9.57-5.52-9.57-14.48,0-20L218.49,4.29c9.57-5.52,25.08-5.52,34.64,0h.01Z"
 />
 <path
  class="cls-1"
  d="m252.7,4.54l119.51,69c9.33,5.38,9.33,14.12,0,19.5l-211.31,122c-9.33,5.38-24.45,5.38-33.77,0L7.62,146.03c-9.33-5.38-9.33-14.12,0-19.5L218.93,4.54c9.33-5.38,24.45-5.38,33.77,0Z"
 />
</svg>
